General
Format                           : AVI
Format/Info                      : Audio Video Interleave
File size                        : 697 MiB
Duration                         : 1h 52mn
Overall bit rate                 : 866 Kbps
Writing application              : FairUse Wizard - http://fairusewizard.com
Writing library                  : The best and REALLY easy backup tool

Video
ID                               : 0
Format                           : MPEG-4 Visual
Format profile                   : AdvancedSimple@L5
Format settings, BVOP            : Yes
Format settings, QPel            : No
Format settings, GMC             : No warppoints
Format settings, Matrix          : Default (H.263)
Muxing mode                      : Packed bitstream
Codec ID                         : XVID
Codec ID/Hint                    : XviD
Duration                         : 1h 52mn
Bit rate                         : 729 Kbps
Width                            : 496 pixels
Height                           : 352 pixels
Display aspect ratio             : 1.409
Frame rate                       : 23.976 fps
Resolution                       : 24 bits
Colorimetry                      : 4:2:0
Scan type                        : Progressive
Bits/(Pixel*Frame)               : 0.174
Stream size                      : 586 MiB (84%)
Writing library                  : XviD 1.1.0 (UTC 2005-11-22)

Audio
ID                               : 1
Format                           : MPEG Audio
Format version                   : Version 1
Format profile                   : Layer 3
Codec ID                         : 55
Codec ID/Hint                    : MP3
Duration                         : 1h 52mn
Bit rate mode                    : Constant
Bit rate                         : 128 Kbps
Channel(s)                       : 2 channels
Sampling rate                    : 48.0 KHz
Resolution                       : 16 bits
Stream size                      : 103 MiB (15%)
Alignment                        : Aligned on interleaves
Interleave, duration             : 42 ms (1.00 video frame)
Interleave, preload duration     : 504 ms
Writing library                  : LAME3.97b
Encoding settings                : -m j -V 4 -q 2 -lowpass 17 -b 128


------------

MARK HERRAS & JENNYLYN MERCADO stars as Stephen & Kristine, two strangers whose romantic destinies are entwined with a message in a bottle thrown into the sea by a sad little girl 10 years ago. Stephen's the type of guy who, whenever he's near a girl he likes, stutter uncontrollably. Kristine, on the other hand, is a spunky girl-currently unemployed-who's never had a problem expressing herself and saying what's on her mind. What happens when Stephen & Kristine meet and clash is a funny but ultimately sigh-inducing adventure in youthful romance.  


------------

Audio Language: Tagalog
Hardcoded English Subtitles

------------

IMDB Info:
 
http://www.imdb.com/title/tt0497827/